<svg width="348" height="181" viewBox="0 0 348 181" fill="none" xmlns="http://www.w3.org/2000/svg">
<g clip-path="url(#clip0_563_109649)">
<path d="M113.932 180.5C115.878 180.5 117.455 178.921 117.455 176.974C117.455 175.026 115.878 173.447 113.932 173.447C111.987 173.447 110.409 175.026 110.409 176.974C110.409 178.921 111.987 180.5 113.932 180.5Z" fill="#FF4D67"/>
<path d="M306.118 177.365C308.064 177.365 309.641 175.787 309.641 173.839C309.641 171.891 308.064 170.312 306.118 170.312C304.173 170.312 302.596 171.891 302.596 173.839C302.596 175.787 304.173 177.365 306.118 177.365Z" fill="#FF4D67"/>
<path d="M174 161.388C270.098 161.388 348 159.207 348 156.516C348 153.825 270.098 151.644 174 151.644C77.9025 151.644 0 153.825 0 156.516C0 159.207 77.9025 161.388 174 161.388Z" fill="#616161"/>
<path d="M122.648 150.051V98.3428H116.909V150.051V155.796H122.648H145.605V150.051H122.648Z" fill="#FF4D67"/>
<path d="M55.9293 98.3425V145.827L40.7967 130.679L40.7623 130.713L40.7302 130.681L25.2602 146.168V98.1631H19.5208V155.617H25.2602V154.293L40.765 138.771L55.9293 153.952V155.796H61.6687V98.3425H55.9293Z" fill="#2A2B39"/>
<path d="M328.545 103.729V97.9834H299.849V98.3427V103.729V123.838V129.583V150.051V155.796H305.588H328.545V150.051H305.588V129.583H328.545V123.838H305.588V103.729H328.545Z" fill="#FF4D67"/>
<path d="M202.281 97.9834V155.796H230.977V97.9834H202.281ZM225.238 150.051H208.02V103.729H225.238V150.051Z" fill="#FF4D67"/>
<path d="M188.292 103.729V97.9834H159.595V98.3427V103.729V150.051V155.796H165.335H188.292V150.051H165.335V103.729H188.292Z" fill="#2A2B39"/>
<path d="M266.73 103.721C266.51 103.724 266.29 103.727 266.068 103.727C265.845 103.727 265.625 103.724 265.405 103.721C253.758 103.456 245.316 96.1709 247.465 88.5271L252.705 69.8803L254.029 65.1621L277.504 65.5628L278.931 70.1786L284.547 88.3464C286.925 96.0323 278.483 103.456 266.73 103.721Z" fill="#2A2B39"/>
<path d="M255.233 106.439C254.877 106.439 254.525 106.369 254.196 106.233C253.867 106.096 253.569 105.897 253.317 105.645C253.066 105.393 252.866 105.094 252.73 104.765C252.594 104.436 252.524 104.084 252.524 103.728V91.9772C252.524 91.2581 252.809 90.5684 253.317 90.0598C253.825 89.5513 254.514 89.2656 255.233 89.2656C255.951 89.2656 256.64 89.5513 257.148 90.0598C257.656 90.5684 257.941 91.2581 257.941 91.9772V103.728C257.941 104.084 257.871 104.436 257.735 104.765C257.599 105.094 257.4 105.393 257.148 105.645C256.896 105.897 256.598 106.096 256.269 106.233C255.941 106.369 255.588 106.439 255.233 106.439Z" fill="#2A2B39"/>
<path opacity="0.2" d="M278.931 70.1786C274.928 72.4691 270.388 73.649 265.777 73.5966C261.167 73.5441 256.654 72.2613 252.704 69.8803L254.029 65.1621L277.504 65.5628L278.931 70.1786Z" fill="black"/>
<path d="M257.608 78.5432C257.459 78.8667 257.248 79.1577 256.987 79.3996C256.726 79.6415 256.42 79.8296 256.086 79.9531C255.753 80.0766 255.398 80.1331 255.043 80.1194C254.687 80.1057 254.338 80.022 254.015 79.8732L243.351 74.9619C242.699 74.6608 242.194 74.113 241.945 73.4388C241.696 72.7646 241.725 72.0192 242.025 71.3663C242.325 70.7134 242.872 70.2065 243.545 69.9569C244.218 69.7073 244.963 69.7354 245.616 70.0351L256.279 74.9464C256.602 75.0952 256.893 75.3063 257.135 75.5676C257.376 75.8289 257.564 76.1353 257.687 76.4693C257.811 76.8033 257.867 77.1583 257.854 77.5142C257.84 77.87 257.756 78.2197 257.608 78.5432Z" fill="#2A2B39"/>
<path d="M277.94 89.1456C278.954 85.362 282.287 79.9041 291.635 73.3234C307.936 61.8449 298.212 53.2383 297.79 52.8777C296.906 52.1213 297.037 51.272 298.094 50.9818C298.708 50.8589 299.341 50.8689 299.951 51.011C300.561 51.1531 301.133 51.4241 301.63 51.8057C302.158 52.2428 314.335 62.6528 295.94 75.6034C279.385 87.2602 282.905 94.8695 282.945 94.9425C283.389 95.7563 282.677 96.4075 281.355 96.3987C280.032 96.3899 278.6 95.7237 278.155 94.9107C278.061 94.7387 276.996 92.6678 277.94 89.1456Z" fill="#2A2B39"/>
<path d="M276.903 106.439C277.258 106.439 277.61 106.369 277.939 106.233C278.268 106.096 278.566 105.897 278.818 105.645C279.069 105.393 279.269 105.094 279.405 104.765C279.541 104.436 279.611 104.084 279.611 103.728V91.9772C279.611 91.2581 279.326 90.5684 278.818 90.0598C278.31 89.5513 277.621 89.2656 276.903 89.2656C276.184 89.2656 275.495 89.5513 274.987 90.0598C274.479 90.5684 274.194 91.2581 274.194 91.9772V103.728C274.194 104.084 274.264 104.436 274.4 104.765C274.536 105.094 274.736 105.393 274.987 105.645C275.239 105.897 275.537 106.096 275.866 106.233C276.195 106.369 276.547 106.439 276.903 106.439Z" fill="#2A2B39"/>
<path d="M280.838 98.3425V99.6662L265.333 115.187L250.168 100.007V98.1631H244.429V155.617H250.168V108.132L265.301 123.281L265.335 123.246L265.367 123.278L280.838 107.791V155.796H286.577V98.3425H280.838Z" fill="#2A2B39"/>
<path d="M265.019 148.369C266.965 148.369 268.542 146.791 268.542 144.843C268.542 142.895 266.965 141.316 265.019 141.316C263.074 141.316 261.497 142.895 261.497 144.843C261.497 146.791 263.074 148.369 265.019 148.369Z" fill="#FF4D67"/>
<path d="M274.528 78.5424C274.676 78.8659 274.887 79.1569 275.148 79.3988C275.409 79.6408 275.715 79.8288 276.049 79.9524C276.382 80.0759 276.737 80.1324 277.093 80.1186C277.448 80.1049 277.797 80.0213 278.12 79.8724L288.784 74.9611C289.437 74.6605 289.943 74.1127 290.192 73.4382C290.441 72.7637 290.413 72.0177 290.112 71.3644C289.812 70.711 289.265 70.2039 288.591 69.9544C287.917 69.705 287.172 69.7338 286.52 70.0344L275.856 74.9456C275.533 75.0945 275.242 75.3056 275.001 75.5669C274.759 75.8282 274.571 76.1346 274.448 76.4686C274.324 76.8026 274.268 77.1576 274.282 77.5134C274.295 77.8693 274.379 78.2189 274.528 78.5424Z" fill="#2A2B39"/>
<path d="M288.223 30.3676C288.457 30.0724 288.626 29.7309 288.718 29.3657C288.811 29.0004 288.825 28.6196 288.76 28.2484L287.286 19.5665L285.812 10.8847C285.732 10.4159 285.531 9.9764 285.228 9.61028C284.925 9.24416 284.531 8.96436 284.085 8.79899C283.64 8.63362 283.159 8.58851 282.691 8.66819C282.222 8.74787 281.783 8.94955 281.418 9.25293L274.644 14.8719L270.563 18.2572C267.842 17.7727 265.06 17.7307 262.325 18.1328L258.394 14.8719L251.62 9.25293C251.255 8.94955 250.816 8.74788 250.347 8.6682C249.879 8.58851 249.398 8.63363 248.953 8.799C248.507 8.96437 248.113 9.24417 247.81 9.61029C247.507 9.9764 247.306 10.4159 247.226 10.8847L245.752 19.5665L244.278 28.2484C244.199 28.7047 244.24 29.1736 244.396 29.6095C241.869 33.4867 240.427 37.9708 240.218 42.5953C240.01 47.2198 241.043 51.8157 243.21 55.9051C245.377 59.9945 248.599 63.4278 252.541 65.8481C256.483 68.2683 261.001 69.587 265.624 69.667C270.248 69.747 274.809 68.5853 278.832 66.3028C282.855 64.0203 286.193 60.7005 288.5 56.6885C290.807 52.6765 291.998 48.119 291.95 43.4901C291.901 38.8611 290.614 34.3298 288.223 30.3676Z" fill="#2A2B39"/>
<path d="M277.328 76.864L276.947 72.006L276.565 67.148C276.545 66.8857 276.455 66.6335 276.307 66.4166C276.158 66.1998 275.955 66.026 275.717 65.9127C275.48 65.7994 275.217 65.7506 274.955 65.7712C274.693 65.7919 274.441 65.8812 274.225 66.0302L270.213 68.79L267.283 70.8053C267.096 70.5858 266.863 70.4096 266.602 70.2888C266.34 70.168 266.055 70.1054 265.767 70.1054C265.478 70.1054 265.193 70.168 264.932 70.2888C264.67 70.4096 264.437 70.5858 264.25 70.8053L261.32 68.79L257.309 66.0302C257.092 65.8811 256.84 65.7918 256.578 65.7712C256.316 65.7506 256.053 65.7994 255.816 65.9127C255.579 66.0259 255.375 66.1997 255.227 66.4166C255.078 66.6334 254.988 66.8857 254.968 67.148L254.586 72.006L254.205 76.8639C254.184 77.1262 254.233 77.3893 254.346 77.6268C254.459 77.8643 254.633 78.0677 254.849 78.2168C255.066 78.3658 255.318 78.4551 255.58 78.4757C255.842 78.4963 256.105 78.4475 256.342 78.3342L260.736 76.2361L264.345 74.5121C264.531 74.7005 264.752 74.8501 264.996 74.9522C265.24 75.0543 265.502 75.1069 265.767 75.1069C266.031 75.1069 266.293 75.0543 266.537 74.9522C266.781 74.8501 267.002 74.7005 267.188 74.5121L270.798 76.2361L275.191 78.3342C275.428 78.4475 275.691 78.4963 275.953 78.4757C276.215 78.4551 276.467 78.3658 276.684 78.2168C276.9 78.0678 277.074 77.8643 277.187 77.6268C277.3 77.3894 277.349 77.1263 277.328 76.864Z" fill="#FF4D67"/>
<path d="M91.3668 95.7359C91.5866 95.7389 91.8063 95.7419 92.029 95.7419C92.2517 95.7419 92.4714 95.7389 92.6911 95.7359C104.339 95.4707 112.781 88.1855 110.632 80.5418L105.392 61.895L104.068 57.1768L80.5921 57.5775L79.1655 62.1932L73.5494 80.361C71.1717 88.0469 79.6139 95.4707 91.3668 95.7359Z" fill="#2A2B39"/>
<path d="M102.864 98.4535C103.22 98.4535 103.572 98.3834 103.901 98.2471C104.229 98.1108 104.528 97.9111 104.779 97.6593C105.031 97.4075 105.23 97.1086 105.367 96.7796C105.503 96.4506 105.573 96.098 105.573 95.7419V83.9916C105.572 83.273 105.286 82.5841 104.778 82.0763C104.27 81.5684 103.582 81.2832 102.864 81.2832C102.146 81.2832 101.458 81.5684 100.95 82.0763C100.442 82.5841 100.156 83.273 100.155 83.9916V95.7419C100.155 96.098 100.225 96.4506 100.361 96.7796C100.498 97.1086 100.697 97.4075 100.949 97.6593C101.2 97.9111 101.499 98.1108 101.827 98.2471C102.156 98.3834 102.508 98.4535 102.864 98.4535Z" fill="#2A2B39"/>
<path opacity="0.2" d="M79.1655 62.1932C83.1682 64.4837 87.709 65.6636 92.3193 65.6112C96.9295 65.5588 101.442 64.2759 105.392 61.895L104.068 57.1768L80.5921 57.5775L79.1655 62.1932Z" fill="black"/>
<path d="M100.489 70.5573C100.638 70.8808 100.848 71.1718 101.11 71.4137C101.371 71.6556 101.677 71.8437 102.01 71.9672C102.344 72.0907 102.699 72.1472 103.054 72.1335C103.409 72.1198 103.759 72.0361 104.082 71.8873L114.745 66.976C115.069 66.8274 115.36 66.6164 115.602 66.3551C115.844 66.0939 116.032 65.7874 116.156 65.4532C116.279 65.1191 116.336 64.7638 116.322 64.4077C116.309 64.0517 116.225 63.7018 116.077 63.378C115.928 63.0543 115.717 62.7631 115.455 62.5211C115.194 62.2791 114.888 62.091 114.554 61.9676C114.22 61.8442 113.865 61.7879 113.509 61.8019C113.154 61.8159 112.804 61.9 112.481 62.0492L101.818 66.9605C101.494 67.1094 101.204 67.3204 100.962 67.5818C100.72 67.8431 100.532 68.1494 100.409 68.4834C100.286 68.8174 100.229 69.1725 100.243 69.5283C100.257 69.8841 100.34 70.2338 100.489 70.5573Z" fill="#2A2B39"/>
<path d="M77.3049 78.95C74.7711 75.9647 69.4257 72.4594 58.1645 70.5155C38.5241 67.1239 43.6347 55.1794 43.8614 54.673C44.3371 53.6107 43.8561 52.899 42.7767 53.0894C42.1692 53.2414 41.6011 53.5216 41.1107 53.9113C40.6202 54.301 40.2186 54.7911 39.9328 55.3489C39.6426 55.97 33.0861 70.595 55.2478 74.4204C75.1934 77.8648 75.2645 86.25 75.2592 86.3333C75.2061 87.2589 76.1274 87.5427 77.3191 86.9682C78.5107 86.3938 79.5209 85.1779 79.5756 84.2525C79.5867 84.0569 79.6643 81.7289 77.3049 78.95Z" fill="#2A2B39"/>
<path d="M81.1941 98.4535C80.8384 98.4535 80.4861 98.3834 80.1575 98.2471C79.8288 98.1108 79.5302 97.9111 79.2787 97.6593C79.0272 97.4075 78.8276 97.1086 78.6915 96.7796C78.5554 96.4506 78.4853 96.098 78.4854 95.7419V83.9916C78.4862 83.273 78.772 82.5841 79.2799 82.0763C79.7878 81.5684 80.4762 81.2832 81.1941 81.2832C81.9119 81.2832 82.6004 81.5684 83.1083 82.0763C83.6162 82.5841 83.902 83.273 83.9028 83.9916V95.7419C83.9028 96.098 83.8328 96.4506 83.6967 96.7796C83.5605 97.1086 83.361 97.4075 83.1095 97.6593C82.8579 97.9111 82.5593 98.1108 82.2307 98.2471C81.902 98.3834 81.5498 98.4535 81.1941 98.4535Z" fill="#2A2B39"/>
<path d="M103.996 103.729V97.9834H75.2994V98.3427V103.729V123.838V129.583V150.051V155.796H81.0387H103.996V150.051H81.0387V129.583H103.996V123.838H81.0387V103.729H103.996Z" fill="#2A2B39"/>
<path d="M44.2598 102.133C46.2053 102.133 47.7825 100.554 47.7825 98.6066C47.7825 96.6589 46.2053 95.0801 44.2598 95.0801C42.3142 95.0801 40.737 96.6589 40.737 98.6066C40.737 100.554 42.3142 102.133 44.2598 102.133Z" fill="#FF4D67"/>
<path d="M309.641 84.8928C311.587 84.8928 313.164 83.314 313.164 81.3663C313.164 79.4187 311.587 77.8398 309.641 77.8398C307.696 77.8398 306.118 79.4187 306.118 81.3663C306.118 83.314 307.696 84.8928 309.641 84.8928Z" fill="#FF4D67"/>
<path d="M202.393 73.5295C204.338 73.5295 205.915 71.9507 205.915 70.0031C205.915 68.0554 204.338 66.4766 202.393 66.4766C200.447 66.4766 198.87 68.0554 198.87 70.0031C198.87 71.9507 200.447 73.5295 202.393 73.5295Z" fill="#FF4D67"/>
<path d="M83.5691 70.5573C83.4204 70.8808 83.2095 71.1718 82.9485 71.4137C82.6875 71.6556 82.3814 71.8437 82.0477 71.9672C81.7141 72.0907 81.3594 72.1472 81.004 72.1335C80.6485 72.1198 80.2993 72.0361 79.9761 71.8873L69.3127 66.976C68.9892 66.8274 68.6981 66.6164 68.456 66.3551C68.214 66.0939 68.0258 65.7874 67.9021 65.4532C67.7785 65.1191 67.7219 64.7638 67.7355 64.4077C67.7491 64.0517 67.8327 63.7018 67.9815 63.378C68.1303 63.0543 68.3413 62.7631 68.6026 62.5211C68.8639 62.2791 69.1702 62.091 69.5041 61.9676C69.8381 61.8442 70.193 61.7879 70.5487 61.8019C70.9044 61.8159 71.2538 61.9 71.577 62.0492L82.2405 66.9605C82.5636 67.1094 82.8543 67.3204 83.096 67.5818C83.3377 67.8431 83.5255 68.1494 83.6489 68.4834C83.7723 68.8174 83.8287 69.1725 83.815 69.5283C83.8013 69.8841 83.7177 70.2338 83.5691 70.5573Z" fill="#2A2B39"/>
<path d="M131.155 62.9505C133.1 62.9505 134.677 61.3716 134.677 59.424C134.677 57.4763 133.1 55.8975 131.155 55.8975C129.209 55.8975 127.632 57.4763 127.632 59.424C127.632 61.3716 129.209 62.9505 131.155 62.9505Z" fill="#FF4D67"/>
<path d="M266.068 51.0015C268.062 51.0015 269.679 49.3828 269.679 47.386C269.679 45.3892 268.062 43.7705 266.068 43.7705C264.073 43.7705 262.456 45.3892 262.456 47.386C262.456 49.3828 264.073 51.0015 266.068 51.0015Z" fill="#616161"/>
<path d="M264.262 49.4951H267.572V53.5625C267.572 53.7802 267.53 53.9956 267.446 54.1967C267.363 54.3977 267.241 54.5804 267.088 54.7343C266.934 54.8882 266.751 55.0102 266.551 55.0935C266.35 55.1768 266.134 55.2196 265.917 55.2196C265.478 55.2196 265.057 55.045 264.747 54.7343C264.436 54.4235 264.262 54.002 264.262 53.5625V49.4951H264.262Z" fill="#FF7185"/>
<path d="M266.068 46.4816C267.397 46.4816 268.475 46.0769 268.475 45.5777C268.475 45.0785 267.397 44.6738 266.068 44.6738C264.738 44.6738 263.66 45.0785 263.66 45.5777C263.66 46.0769 264.738 46.4816 266.068 46.4816Z" fill="#2A2B39"/>
<path d="M270.883 44.3732C271.382 44.3732 271.786 43.9685 271.786 43.4693C271.786 42.9701 271.382 42.5654 270.883 42.5654C270.384 42.5654 269.98 42.9701 269.98 43.4693C269.98 43.9685 270.384 44.3732 270.883 44.3732Z" fill="#616161"/>
<path d="M261.252 44.3732C261.751 44.3732 262.155 43.9685 262.155 43.4693C262.155 42.9701 261.751 42.5654 261.252 42.5654C260.753 42.5654 260.349 42.9701 260.349 43.4693C260.349 43.9685 260.753 44.3732 261.252 44.3732Z" fill="#616161"/>
<path d="M282.097 12.8105C281.786 12.8111 281.485 12.9209 281.246 13.1208L273.032 19.935C272.851 20.0852 272.713 20.2805 272.631 20.5011C272.549 20.7218 272.527 20.9602 272.566 21.1922C272.606 21.4243 272.705 21.6418 272.855 21.8231C273.005 22.0043 273.2 22.1428 273.421 22.2247L283.423 25.939C283.643 26.0209 283.882 26.0433 284.113 26.0038C284.345 25.9644 284.563 25.8645 284.744 25.7143C284.925 25.5642 285.063 25.3689 285.145 25.1482C285.227 24.9275 285.249 24.6891 285.21 24.457L283.422 13.9286C283.384 13.696 283.285 13.4778 283.134 13.2963C282.984 13.1148 282.788 12.9766 282.567 12.896C282.416 12.8397 282.257 12.8108 282.097 12.8105Z" fill="#616161"/>
<path d="M250.942 12.8105C250.781 12.8108 250.622 12.8397 250.471 12.896C250.25 12.9767 250.054 13.1148 249.904 13.2963C249.754 13.4778 249.654 13.696 249.616 13.9286L247.828 24.457C247.789 24.6891 247.811 24.9275 247.893 25.1482C247.975 25.3689 248.113 25.5642 248.294 25.7143C248.475 25.8645 248.693 25.9644 248.925 26.0038C249.157 26.0433 249.395 26.0209 249.615 25.939L259.617 22.2247C259.838 22.1428 260.033 22.0043 260.183 21.8231C260.333 21.6418 260.432 21.4243 260.472 21.1922C260.511 20.9602 260.489 20.7218 260.407 20.5011C260.325 20.2804 260.187 20.0852 260.006 19.935L260.006 19.9347L251.792 13.1208C251.553 12.9209 251.253 12.8111 250.942 12.8105Z" fill="#616161"/>
<path d="M268.977 11.7998C268.804 12.1602 268.635 12.5245 268.477 12.8962C266.609 17.257 265.979 22.0491 266.656 26.7451C266.995 26.253 267.351 25.7402 267.713 25.2218C266.938 20.7148 267.374 16.0823 268.977 11.7998Z" fill="#2A2B39"/>
<path d="M266.269 8.48535C266.095 8.84574 265.926 9.21004 265.768 9.58178C263.9 13.9425 263.27 18.7346 263.947 23.4307C264.286 22.9385 264.642 22.4257 265.005 21.9073C264.229 17.4003 264.665 12.7678 266.269 8.48535Z" fill="#2A2B39"/>
<path d="M113.701 21.6242C113.857 21.1883 113.897 20.7193 113.819 20.263L112.345 11.5812L110.87 2.89935C110.791 2.43059 110.589 1.99106 110.286 1.62495C109.983 1.25883 109.589 0.97903 109.144 0.813657C108.698 0.648285 108.217 0.603169 107.749 0.682851C107.281 0.762534 106.842 0.964207 106.476 1.26759L99.7025 6.88659L95.7716 10.1475C93.0367 9.74537 90.2549 9.78736 87.5333 10.2718L83.4525 6.88658L76.6789 1.26758C76.3131 0.964194 75.8741 0.762522 75.4058 0.682839C74.9376 0.603156 74.4566 0.648267 74.0113 0.81364C73.5659 0.979012 73.1719 1.25882 72.8689 1.62493C72.5658 1.99105 72.3643 2.43058 72.2848 2.89933L70.8105 11.5812L69.3363 20.263C69.2712 20.6342 69.2855 21.015 69.3781 21.3803C69.4708 21.7456 69.6398 22.0871 69.8739 22.3822C67.4797 26.3454 66.1902 30.8785 66.1397 35.5098C66.0892 40.1411 67.2796 44.7013 69.5868 48.7158C71.8941 52.7304 75.2339 56.0526 79.2588 58.3367C83.2837 60.6208 87.8466 61.7833 92.4725 61.7033C97.0985 61.6233 101.619 60.3037 105.562 57.8817C109.506 55.4598 112.729 52.0241 114.896 47.9321C117.064 43.8402 118.096 39.2415 117.886 34.6148C117.675 29.988 116.23 25.5022 113.701 21.6242H113.701Z" fill="#2A2B39"/>
<path d="M92.029 43.0161C94.0237 43.0161 95.6407 41.3974 95.6407 39.4006C95.6407 37.4039 94.0237 35.7852 92.029 35.7852C90.0344 35.7852 88.4174 37.4039 88.4174 39.4006C88.4174 41.3974 90.0344 43.0161 92.029 43.0161Z" fill="#616161"/>
<path d="M92.1795 47.2344C91.9621 47.2344 91.7469 47.1915 91.546 47.1082C91.3452 47.025 91.1627 46.9029 91.009 46.749C90.8553 46.5951 90.7334 46.4125 90.6502 46.2114C90.567 46.0104 90.5242 45.7949 90.5242 45.5773V41.5099H93.8348V45.5773C93.8348 45.7949 93.792 46.0104 93.7088 46.2114C93.6257 46.4125 93.5037 46.5951 93.35 46.749C93.1963 46.9029 93.0138 47.025 92.813 47.1082C92.6121 47.1915 92.3969 47.2344 92.1795 47.2344Z" fill="#FF7185"/>
<path d="M92.029 38.4962C93.3588 38.4962 94.4367 38.0915 94.4367 37.5923C94.4367 37.0932 93.3588 36.6885 92.029 36.6885C90.6992 36.6885 89.6212 37.0932 89.6212 37.5923C89.6212 38.0915 90.6992 38.4962 92.029 38.4962Z" fill="#2A2B39"/>
<path d="M95.9416 35.484C95.9416 35.9832 96.3458 35.484 96.8445 35.484C97.3432 35.484 97.7474 35.9832 97.7474 35.484C97.7469 35.2446 97.6516 35.0152 97.4823 34.8461C97.313 34.677 97.0837 34.582 96.8445 34.582C96.6054 34.582 96.376 34.677 96.2067 34.8461C96.0374 35.0152 95.9421 35.2446 95.9416 35.484Z" fill="#616161"/>
<path d="M88.1164 35.484C88.1164 35.9832 87.7121 35.484 87.2135 35.484C86.7148 35.484 86.3105 35.9832 86.3105 35.484C86.311 35.2446 86.4064 35.0152 86.5757 34.8461C86.7449 34.677 86.9743 34.582 87.2135 34.582C87.4526 34.582 87.682 34.677 87.8512 34.8461C88.0205 35.0152 88.1159 35.2446 88.1164 35.484Z" fill="#616161"/>
<path d="M106.305 5.13546L98.0907 11.9494L98.0906 11.9496C97.9096 12.0998 97.7712 12.2951 97.6894 12.5158C97.6077 12.7365 97.5854 12.9748 97.6248 13.2069C97.6642 13.4389 97.7639 13.6565 97.9139 13.8377C98.064 14.019 98.259 14.1575 98.4794 14.2393L108.481 17.9537C108.702 18.0356 108.94 18.0579 109.172 18.0185C109.404 17.979 109.621 17.8792 109.802 17.729C109.983 17.5788 110.122 17.3835 110.203 17.1628C110.285 16.9421 110.308 16.7037 110.268 16.4716L108.48 5.94326C108.442 5.71065 108.343 5.4924 108.193 5.31093C108.042 5.12945 107.847 4.9913 107.625 4.91067C107.475 4.85437 107.316 4.82542 107.155 4.8252C106.844 4.82578 106.543 4.93558 106.305 5.13546Z" fill="#616161"/>
<path d="M75.5297 4.91067C75.3084 4.9913 75.1126 5.12944 74.9623 5.31092C74.812 5.4924 74.7128 5.71065 74.6747 5.94326L72.8869 16.4716C72.8475 16.7037 72.8698 16.9421 72.9516 17.1628C73.0334 17.3835 73.1718 17.5788 73.3529 17.729C73.534 17.8792 73.7514 17.979 73.9832 18.0185C74.215 18.0579 74.4532 18.0356 74.6736 17.9537L84.6756 14.2393C84.8961 14.1575 85.0911 14.0189 85.2411 13.8377C85.3912 13.6565 85.4909 13.4389 85.5303 13.2069C85.5697 12.9748 85.5474 12.7365 85.4656 12.5158C85.3839 12.2951 85.2455 12.0998 85.0645 11.9496L76.8502 5.13546C76.6119 4.93558 76.311 4.82578 76.0001 4.8252C75.8394 4.82542 75.6801 4.85437 75.5297 4.91067Z" fill="#616161"/>
<path d="M89.1193 3.81445C89.2929 4.17485 89.4615 4.53914 89.62 4.91087C91.4879 9.27164 92.1178 14.0637 91.4404 18.7598C91.1016 18.2676 90.7454 17.7548 90.3832 17.2364C91.159 12.7294 90.7228 8.09693 89.1193 3.81445Z" fill="#2A2B39"/>
<path d="M91.8281 0.5C92.0017 0.860392 92.1702 1.22468 92.3288 1.59642C94.1966 5.95719 94.8265 10.7493 94.1492 15.4453C93.8103 14.9531 93.4542 14.4404 93.0919 13.922C93.8677 9.41496 93.4315 4.78248 91.8281 0.5Z" fill="#2A2B39"/>
<path d="M80.768 16.153L81.1496 11.295L81.5312 6.43706C81.5518 6.17476 81.641 5.9225 81.7899 5.70566C81.9387 5.48881 82.142 5.31501 82.3792 5.20172C82.6164 5.08843 82.8792 5.03965 83.1413 5.06028C83.4033 5.08091 83.6553 5.17021 83.8719 5.31923L87.8838 8.07903L90.8134 10.0943C91.0006 9.87487 91.2331 9.69866 91.495 9.57783C91.7568 9.457 92.0416 9.39444 92.3299 9.39444C92.6182 9.39444 92.9031 9.457 93.1649 9.57783C93.4268 9.69866 93.6593 9.87487 93.8465 10.0943L96.7761 8.07903L100.788 5.31923C101.005 5.17021 101.257 5.08091 101.519 5.06028C101.781 5.03965 102.043 5.08843 102.281 5.20172C102.518 5.31501 102.721 5.48881 102.87 5.70566C103.019 5.9225 103.108 6.17476 103.129 6.43706L103.51 11.295L103.892 16.153C103.912 16.4153 103.864 16.6784 103.751 16.9159C103.637 17.1533 103.464 17.3568 103.247 17.5058C103.031 17.6548 102.779 17.7441 102.517 17.7648C102.255 17.7854 101.992 17.7366 101.754 17.6233L97.361 15.5251L93.7511 13.8012C93.5654 13.9896 93.3441 14.1392 93.1001 14.2413C92.8561 14.3434 92.5944 14.396 92.3299 14.396C92.0655 14.396 91.8037 14.3434 91.5598 14.2413C91.3158 14.1392 91.0945 13.9896 90.9088 13.8012L87.2989 15.5251L82.9054 17.6233C82.6682 17.7366 82.4054 17.7854 82.1433 17.7648C81.8813 17.7442 81.6293 17.6548 81.4127 17.5058C81.1961 17.3568 81.0225 17.1533 80.9093 16.9159C80.7962 16.6784 80.7474 16.4153 80.768 16.153Z" fill="#FF4D67"/>
</g>
<defs>
<clipPath id="clip0_563_109649">
<rect width="348" height="180" fill="white" transform="translate(0 0.5)"/>
</clipPath>
</defs>
</svg>
