<svg width="306" height="200" viewBox="0 0 306 200" fill="none" xmlns="http://www.w3.org/2000/svg">
<g clip-path="url(#clip0_563_109441)">
<path d="M297.242 199.558L297.695 199.549C297.52 194.514 296.983 189.499 296.089 184.541C294.133 173.926 290.881 166.955 286.423 163.821L286.163 164.191C296.578 171.512 297.237 199.278 297.242 199.558Z" fill="#23252F"/>
<path d="M291.589 199.45L292.041 199.441C292.032 198.94 291.749 187.121 287.102 183.854L286.842 184.225C291.302 187.36 291.587 199.329 291.589 199.45Z" fill="#23252F"/>
<path d="M285.167 189.435C286.344 189.805 287.596 189.859 288.8 189.592C288.036 188.618 287.006 187.886 285.836 187.484C284.665 187.082 283.404 187.027 282.203 187.327C282.99 188.277 284.012 189.004 285.167 189.435V189.435Z" fill="#23252F"/>
<path d="M284.71 183.705C285.959 183.705 286.972 182.691 286.972 181.44C286.972 180.19 285.959 179.176 284.71 179.176C283.461 179.176 282.448 180.19 282.448 181.44C282.448 182.691 283.461 183.705 284.71 183.705Z" fill="#23252F"/>
<path d="M285.251 172.191C286.929 172.718 288.716 172.796 290.434 172.415C289.343 171.025 287.875 169.98 286.205 169.406C284.535 168.833 282.735 168.755 281.021 169.182C282.144 170.539 283.602 171.576 285.251 172.191V172.191Z" fill="#23252F"/>
<path d="M292.643 165.59C292.416 167.337 292.652 169.112 293.326 170.739C294.503 169.422 295.275 167.792 295.548 166.045C295.821 164.299 295.584 162.511 294.865 160.896C293.727 162.239 292.96 163.858 292.643 165.59Z" fill="#23252F"/>
<path d="M283.59 164.232C284.839 164.232 285.852 163.219 285.852 161.968C285.852 160.718 284.839 159.704 283.59 159.704C282.341 159.704 281.329 160.718 281.329 161.968C281.329 163.219 282.341 164.232 283.59 164.232Z" fill="#23252F"/>
<path d="M104.638 199.558L103.981 199.545C104.235 192.237 105.014 184.957 106.312 177.761C109.151 162.354 113.871 152.235 120.342 147.687L120.719 148.224C105.603 158.851 104.646 199.152 104.638 199.558Z" fill="#23252F"/>
<path d="M112.844 199.401L112.188 199.388C112.202 198.66 112.612 181.506 119.358 176.764L119.735 177.302C113.261 181.852 112.847 199.226 112.844 199.401Z" fill="#23252F"/>
<path d="M122.165 184.865C120.457 185.402 118.639 185.48 116.892 185.093C118.001 183.679 119.496 182.616 121.194 182.032C122.893 181.449 124.725 181.37 126.468 181.804C125.326 183.184 123.842 184.239 122.165 184.865Z" fill="#23252F"/>
<path d="M99.3439 194.489L104.655 194.489L107.182 173.979L99.3428 173.98L99.3439 194.489Z" fill="#FFB7B7"/>
<path d="M97.9893 192.753L108.449 192.752H108.449C110.217 192.753 111.912 193.456 113.162 194.707C114.412 195.959 115.114 197.656 115.114 199.426V199.643L97.9896 199.643L97.9893 192.753Z" fill="#2A2B39"/>
<path d="M32.6305 194.489L37.9414 194.489L40.4682 173.979L32.6294 173.98L32.6305 194.489Z" fill="#FFB7B7"/>
<path d="M31.2759 192.753L41.7352 192.752H41.7356C43.5033 192.753 45.1987 193.456 46.4486 194.707C47.6986 195.959 48.4009 197.656 48.4011 199.426V199.643L31.2762 199.643L31.2759 192.753Z" fill="#2A2B39"/>
<path d="M122.829 176.547C124.642 176.547 126.111 175.076 126.111 173.261C126.111 171.446 124.642 169.975 122.829 169.975C121.016 169.975 119.546 171.446 119.546 173.261C119.546 175.076 121.016 176.547 122.829 176.547Z" fill="#23252F"/>
<path d="M262.451 200H178.679C178.01 199.999 177.368 199.733 176.895 199.259C176.422 198.786 176.156 198.144 176.156 197.474V169.18C176.156 168.51 176.422 167.868 176.895 167.395C177.368 166.921 178.01 166.655 178.679 166.654H262.451C263.12 166.655 263.761 166.921 264.234 167.395C264.707 167.868 264.973 168.51 264.974 169.18V197.474C264.973 198.144 264.707 198.786 264.234 199.259C263.761 199.733 263.12 199.999 262.451 200Z" fill="#9E9E9E"/>
<path d="M305.131 200H0.869249C0.771318 200 0.677398 199.961 0.60815 199.892C0.538903 199.822 0.5 199.728 0.5 199.63C0.5 199.532 0.538903 199.438 0.60815 199.369C0.677398 199.3 0.771318 199.261 0.869249 199.261H305.131C305.229 199.261 305.323 199.3 305.392 199.369C305.461 199.438 305.5 199.532 305.5 199.63C305.5 199.728 305.461 199.822 305.392 199.892C305.323 199.961 305.229 200 305.131 200Z" fill="#616161"/>
<path d="M250.844 177.264C251.68 177.264 252.358 176.585 252.358 175.748C252.358 174.911 251.68 174.232 250.844 174.232C250.008 174.232 249.33 174.911 249.33 175.748C249.33 176.585 250.008 177.264 250.844 177.264Z" fill="#FF4D67"/>
<path d="M245.797 177.264C246.634 177.264 247.311 176.585 247.311 175.748C247.311 174.911 246.634 174.232 245.797 174.232C244.961 174.232 244.283 174.911 244.283 175.748C244.283 176.585 244.961 177.264 245.797 177.264Z" fill="#FF4D67"/>
<path d="M240.751 177.264C241.587 177.264 242.265 176.585 242.265 175.748C242.265 174.911 241.587 174.232 240.751 174.232C239.915 174.232 239.237 174.911 239.237 175.748C239.237 176.585 239.915 177.264 240.751 177.264Z" fill="#FF4D67"/>
<path d="M211.481 174.232H189.276V176.759H211.481V174.232Z" fill="#2A2B39"/>
<path d="M122.044 159.836C119.608 160.602 117.013 160.714 114.521 160.161C116.103 158.143 118.235 156.627 120.659 155.794C123.083 154.962 125.696 154.849 128.182 155.469C126.553 157.438 124.436 158.943 122.044 159.836Z" fill="#23252F"/>
<path d="M111.314 150.255C111.643 152.79 111.301 155.367 110.323 157.728C108.614 155.816 107.495 153.45 107.098 150.915C106.702 148.381 107.046 145.785 108.089 143.442C109.741 145.391 110.853 147.74 111.314 150.255V150.255Z" fill="#23252F"/>
<path d="M124.454 148.284C126.267 148.284 127.737 146.813 127.737 144.998C127.737 143.183 126.267 141.711 124.454 141.711C122.641 141.711 121.172 143.183 121.172 144.998C121.172 146.813 122.641 148.284 124.454 148.284Z" fill="#23252F"/>
<path d="M262.451 164.127H178.679C178.01 164.126 177.368 163.86 176.895 163.386C176.422 162.913 176.156 162.271 176.156 161.601V133.307C176.156 132.637 176.422 131.995 176.895 131.522C177.368 131.048 178.01 130.782 178.679 130.781H262.451C263.12 130.782 263.761 131.048 264.234 131.522C264.707 131.995 264.973 132.637 264.974 133.307V161.601C264.973 162.271 264.707 162.913 264.234 163.386C263.761 163.86 263.12 164.126 262.451 164.127V164.127Z" fill="#9E9E9E"/>
<path d="M250.844 141.391C251.68 141.391 252.358 140.713 252.358 139.876C252.358 139.038 251.68 138.36 250.844 138.36C250.008 138.36 249.33 139.038 249.33 139.876C249.33 140.713 250.008 141.391 250.844 141.391Z" fill="#FF4D67"/>
<path d="M245.797 141.391C246.634 141.391 247.311 140.713 247.311 139.876C247.311 139.038 246.634 138.36 245.797 138.36C244.961 138.36 244.283 139.038 244.283 139.876C244.283 140.713 244.961 141.391 245.797 141.391Z" fill="#FF4D67"/>
<path d="M240.751 141.391C241.587 141.391 242.265 140.713 242.265 139.876C242.265 139.038 241.587 138.36 240.751 138.36C239.915 138.36 239.237 139.038 239.237 139.876C239.237 140.713 239.915 141.391 240.751 141.391Z" fill="#FF4D67"/>
<path d="M211.481 138.36H189.276V140.886H211.481V138.36Z" fill="#2A2B39"/>
<path d="M262.451 128.255H178.679C178.01 128.254 177.368 127.987 176.895 127.514C176.422 127.04 176.156 126.398 176.156 125.728V97.4344C176.156 96.7647 176.422 96.1226 176.895 95.649C177.368 95.1754 178.01 94.909 178.679 94.9082H262.451C263.12 94.909 263.761 95.1754 264.234 95.649C264.707 96.1226 264.973 96.7647 264.974 97.4344V125.728C264.973 126.398 264.707 127.04 264.234 127.514C263.761 127.987 263.12 128.254 262.451 128.255V128.255Z" fill="#9E9E9E"/>
<path d="M250.844 105.519C251.68 105.519 252.358 104.84 252.358 104.003C252.358 103.166 251.68 102.487 250.844 102.487C250.008 102.487 249.33 103.166 249.33 104.003C249.33 104.84 250.008 105.519 250.844 105.519Z" fill="#FF4D67"/>
<path d="M245.797 105.519C246.634 105.519 247.311 104.84 247.311 104.003C247.311 103.166 246.634 102.487 245.797 102.487C244.961 102.487 244.283 103.166 244.283 104.003C244.283 104.84 244.961 105.519 245.797 105.519Z" fill="#FF4D67"/>
<path d="M240.751 105.519C241.587 105.519 242.265 104.84 242.265 104.003C242.265 103.166 241.587 102.487 240.751 102.487C239.915 102.487 239.237 103.166 239.237 104.003C239.237 104.84 239.915 105.519 240.751 105.519Z" fill="#FF4D67"/>
<path d="M211.481 102.487H189.276V105.014H211.481V102.487Z" fill="#2A2B39"/>
<path d="M53.9225 59.606L52.343 49.932L47.8835 48.8157C47.8835 48.8157 44.344 47.7242 43.5167 54.862C42.6895 61.9997 43.3308 75.3263 43.3308 75.3263L33.5395 106.369C32.7877 106.727 32.1547 107.294 31.7165 108.002C31.2782 108.711 31.0532 109.531 31.0683 110.364C31.0835 111.197 31.3382 112.009 31.8019 112.701C32.2657 113.393 32.9188 113.937 33.6832 114.267C34.4475 114.597 35.2907 114.699 36.1117 114.562C36.9328 114.425 37.6969 114.053 38.3127 113.493C38.9284 112.932 39.3697 112.205 39.5836 111.4C39.7976 110.594 39.7752 109.744 39.5191 108.951L52.2502 79.7913L53.9225 59.606Z" fill="#FFB7B7"/>
<path d="M81.0415 51.9932L78.7002 42.4751L82.3639 39.6955C82.3639 39.6955 85.191 37.3003 88.7511 43.5396C92.3112 49.7789 96.9477 62.2874 96.9477 62.2874L118.127 86.9883C118.959 87.0217 119.763 87.2944 120.444 87.7738C121.125 88.2531 121.654 88.9188 121.966 89.6911C122.279 90.4634 122.363 91.3096 122.208 92.1285C122.053 92.9473 121.665 93.704 121.092 94.308C120.518 94.9121 119.783 95.3378 118.974 95.5343C118.165 95.7308 117.317 95.6898 116.531 95.416C115.744 95.1423 115.054 94.6475 114.541 93.9909C114.028 93.3343 113.716 92.5437 113.64 91.7137L90.4957 69.9001L81.0415 51.9932Z" fill="#FFB7B7"/>
<path d="M65.2036 33.7643C73.1368 33.7643 79.568 27.3255 79.568 19.3829C79.568 11.4402 73.1368 5.00146 65.2036 5.00146C57.2703 5.00146 50.8391 11.4402 50.8391 19.3829C50.8391 27.3255 57.2703 33.7643 65.2036 33.7643Z" fill="#2A2B39"/>
<path d="M53.9913 11.6289C56.3126 9.30489 56.783 6.00796 55.0421 4.26497C53.3011 2.52198 50.0081 2.99297 47.6869 5.31695C45.3656 7.64094 44.8952 10.9379 46.6361 12.6809C48.377 14.4238 51.6701 13.9529 53.9913 11.6289Z" fill="#2A2B39"/>
<path d="M80.1751 7.06215C81.1422 4.79534 79.479 1.91112 76.4602 0.620052C73.4413 -0.671013 70.21 0.119983 69.2429 2.38679C68.2757 4.6536 69.939 7.53783 72.9578 8.82889C75.9766 10.12 79.2079 9.32896 80.1751 7.06215Z" fill="#2A2B39"/>
<path d="M76.3563 28.6706C79.5858 22.7558 77.4146 15.3398 71.5068 12.1065C65.599 8.8732 58.1917 11.047 54.9623 16.9617C51.7328 22.8765 53.904 30.2925 59.8118 33.5258C65.7195 36.7591 73.1268 34.5854 76.3563 28.6706Z" fill="#FFB7B7"/>
<path d="M59.5495 38.6881L47.4832 48.5539L58.026 73.7218L58.2271 77.7486C58.2271 77.7486 47.2827 87.8514 40.5109 116.073C33.7391 144.295 20.062 181.795 20.062 181.795L47.4237 188.497L66.4476 124.656L90.6987 174.741L94.1486 189.555L115.299 183.676L107.136 143.922L87.1156 82.2129L88.7597 65.1651C88.7597 65.1651 92.4233 56.656 86.0588 47.6471L84.0624 39.182L73.7284 37.4185L59.5495 38.6881Z" fill="#2A2B39"/>
<path d="M161.925 138.993C160.329 138.987 158.74 138.782 157.196 138.38L156.892 138.296L156.609 138.154C146.4 133.03 137.788 126.261 131.011 118.036C125.4 111.187 121.027 103.411 118.086 95.0579C114.569 85.0567 112.877 74.5038 113.09 63.903C113.095 63.6805 113.098 63.5086 113.098 63.3903C113.098 58.2371 115.955 53.7157 120.377 51.8712C123.761 50.4595 154.486 37.8245 156.706 36.9115C160.887 34.8142 165.347 36.5648 166.061 36.8709C167.662 37.5262 196.066 49.1574 202.204 52.0836C208.529 55.0995 210.217 60.5173 210.217 63.2432C210.217 75.5838 208.082 87.1172 203.872 97.5228C200.472 105.945 195.653 113.721 189.625 120.511C177.994 133.615 166.36 138.261 166.248 138.302C164.858 138.781 163.395 139.015 161.925 138.993V138.993ZM159.189 132.208C160.197 132.434 162.519 132.774 164.033 132.221C165.956 131.519 175.693 126.464 184.792 116.212C197.364 102.047 203.743 84.2416 203.752 63.2887C203.73 62.8642 203.429 59.8366 199.424 57.9274C193.405 55.0578 163.882 42.9716 163.584 42.8497L163.503 42.8151C162.884 42.5555 160.915 42.0088 159.558 42.7209L159.286 42.8477C158.957 42.983 126.342 56.3947 122.863 57.8457C120.43 58.8608 119.563 61.3754 119.563 63.3903C119.563 63.5375 119.559 63.7517 119.554 64.0285C119.276 78.3653 122.59 113.643 159.189 132.208Z" fill="#424242"/>
<path d="M158.058 39.8539C158.058 39.8539 125.146 53.3872 121.62 54.8582C118.094 56.3292 116.331 59.8597 116.331 63.3901C116.331 66.9205 113.686 112.988 158.058 135.261C158.058 135.261 162.085 136.377 165.141 135.261C168.196 134.146 206.985 115.317 206.985 63.243C206.985 63.243 206.985 57.9473 200.814 55.0053C194.643 52.0633 164.808 39.8539 164.808 39.8539C164.808 39.8539 161.144 38.2358 158.058 39.8539Z" fill="#FF4D67"/>
<path opacity="0.2" d="M161.584 50.4453V122.641C161.584 122.641 194.79 106.638 194.496 64.567L161.584 50.4453Z" fill="black"/>
<path d="M52.8494 15.139C55.6352 17.0613 58.9417 18.0844 62.3251 18.0708C61.1182 18.9087 59.7443 19.4746 58.2979 19.7296C62.7963 20.6957 67.4455 20.7218 71.9545 19.8064C72.9568 19.6455 73.9239 19.313 74.8134 18.8234C75.2567 18.5755 75.6429 18.2371 75.9469 17.83C76.2509 17.4229 76.466 16.9563 76.5781 16.4606C76.8777 14.7469 75.5439 13.1899 74.1579 12.1406C72.0357 10.5586 69.5888 9.46862 66.9942 8.94954C64.3997 8.43046 61.7223 8.49527 59.1558 9.13926C57.48 9.57295 55.8012 10.3057 54.7127 11.6531C53.6242 13.0005 53.3018 15.0778 54.3388 16.4653L52.8494 15.139Z" fill="#2A2B39"/>
</g>
<defs>
<clipPath id="clip0_563_109441">
<rect width="305" height="200" fill="white" transform="translate(0.5)"/>
</clipPath>
</defs>
</svg>
