<svg width="186" height="180" viewBox="0 0 186 180" fill="none" xmlns="http://www.w3.org/2000/svg">
<circle cx="95.5" cy="90.5" r="70.5" fill="url(#paint0_linear_1378_14338)"/>
<circle cx="178.467" cy="27.5" r="7.5" fill="#FF94A4"/>
<circle cx="20.0332" cy="10" r="10" fill="#FF94A4"/>
<circle cx="10.0332" cy="133" r="5" fill="#FF94A4"/>
<circle cx="165.533" cy="160.5" r="2.5" fill="#FF94A4"/>
<path fill-rule="evenodd" clip-rule="evenodd" d="M94.8309 114.871C95.1032 115.013 95.4076 115.086 95.712 115.083C96.0164 115.081 96.3184 115.006 96.5931 114.862L105.364 110.173C107.851 108.847 109.799 107.364 111.319 105.638C114.623 101.878 116.427 97.0781 116.395 92.1291L116.291 75.8041C116.281 73.9238 115.046 72.246 113.219 71.6361L96.9024 66.1615C95.9199 65.8288 94.8433 65.8361 93.8781 66.1784L77.623 71.8482C75.8064 72.4822 74.5937 74.1721 74.6036 76.0548L74.7075 92.3677C74.7397 97.324 76.6058 102.102 79.9642 105.824C81.4987 107.526 83.4637 108.987 85.9782 110.291L94.8309 114.871ZM92.509 95.6845C92.8753 96.0365 93.3505 96.2101 93.8257 96.2052C94.3008 96.2028 94.7736 96.0244 95.1349 95.6677L104.72 86.2179C105.44 85.5068 105.433 84.3641 104.705 83.6626C103.975 82.9611 102.8 82.9659 102.079 83.6771L93.7984 91.8395L90.4078 88.5803C89.6777 87.8788 88.5046 87.8861 87.782 88.5972C87.0618 89.3084 87.0692 90.451 87.7993 91.1525L92.509 95.6845Z" fill="white"/>
<circle cx="106.533" cy="4.5" r="2.5" fill="#FF94A4"/>
<circle cx="62.5332" cy="176.5" r="3.5" fill="#FF94A4"/>
<circle cx="122.033" cy="171" r="1" fill="#FF94A4"/>
<circle cx="170.533" cy="110.5" r="2.5" fill="#FF94A4"/>
<circle cx="1.0332" cy="75" r="1" fill="#FF94A4"/>
<defs>
<linearGradient id="paint0_linear_1378_14338" x1="166" y1="161" x2="-1.77734" y2="112.355" gradientUnits="userSpaceOnUse">
<stop stop-color="#FF4D67"/>
<stop offset="1" stop-color="#FF8395"/>
</linearGradient>
</defs>
</svg>
