<svg width="18" height="18" viewBox="0 0 18 18" fill="none" xmlns="http://www.w3.org/2000/svg">
<path fill-rule="evenodd" clip-rule="evenodd" d="M5.10848 0.666992H12.8835C15.7168 0.666992 17.3335 2.26699 17.3335 5.10866V12.892C17.3335 15.717 15.7251 17.3337 12.8918 17.3337H5.10848C2.26681 17.3337 0.666809 15.717 0.666809 12.892V5.10866C0.666809 2.26699 2.26681 0.666992 5.10848 0.666992ZM9.68348 9.69199H12.0501C12.4335 9.68366 12.7418 9.37533 12.7418 8.99199C12.7418 8.60866 12.4335 8.30033 12.0501 8.30033H9.68348V5.95033C9.68348 5.56699 9.37514 5.25866 8.99181 5.25866C8.60848 5.25866 8.30014 5.56699 8.30014 5.95033V8.30033H5.94181C5.75848 8.30033 5.58348 8.37533 5.45014 8.50033C5.32514 8.63366 5.25014 8.80783 5.25014 8.99199C5.25014 9.37533 5.55848 9.68366 5.94181 9.69199H8.30014V12.0503C8.30014 12.4337 8.60848 12.742 8.99181 12.742C9.37514 12.742 9.68348 12.4337 9.68348 12.0503V9.69199Z" fill="#FF4D67"/>
</svg>
